# xmcd
#
# Track frame offsets: 
#        150
#        19431
#        37178
#        52504
#        63899
#        80924
#        100839
#        120169
#        137073
#        149662
#        163729
#        176843
#        193637
#        214761
#        226937
#
# Disc length: 3110 seconds
#
# Revision: 0
# Processed by: cddbd v1.5.2PL0 Copyright (c) Steve Scherf et al.
# Submitted via: ExactAudioCopy v0.99pb5
#
DISCID=d40c240f
DTITLE=Westwood - Live d1
DYEAR=2008
DGENRE=Folk
TTITLE0=After All This Time
TTITLE1=Foolish Man
TTITLE2=The Best Days Of Your Life
TTITLE3=Memories Of You
TTITLE4=The Blues
TTITLE5=Here Comes The Sun
TTITLE6=Take Your Time
TTITLE7=Running Blind
TTITLE8=Winter Morning
TTITLE9=Cajun Moon
TTITLE10=Long Black Veil
TTITLE11=Country Music
TTITLE12=Without You
TTITLE13=Westwood Breakdown
TTITLE14=Cripple Creek
EXTD=
EXTT0=
EXTT1=
EXTT2=
EXTT3=
EXTT4=
EXTT5=
EXTT6=
EXTT7=
EXTT8=
EXTT9=
EXTT10=
EXTT11=
EXTT12=
EXTT13=
EXTT14=
PLAYORDER=
